<?xml version="1.0" ?><!DOCTYPE svg  PUBLIC '-//W3C//DTD SVG 1.1//EN'  'http://www.w3.org/Graphics/SVG/1.1/DTD/svg11.dtd'><svg enable-background="new 0 0 512 512" height="512px" id="Слой_1" version="1.1" viewBox="0 0 512 512" width="512px" xml:space="preserve" xmlns="http://www.w3.org/2000/svg" xmlns:xlink="http://www.w3.org/1999/xlink"><g><g><g><path clip-rule="evenodd" d="M297.667,132.945c-2.775-4.86-6.285-9.418-10.531-13.673      c-12.285-12.252-27.106-18.38-44.463-18.385c-17.316,0.007-32.098,6.135-44.344,18.385      c-11.128,11.146-17.199,24.392-18.216,39.739c-0.084,1.484-0.122,2.997-0.115,4.537v0.117c0.009,0.798,0.028,1.593,0.058,2.385      c0.11,3.017-0.86,5.635-2.91,7.854c-2.069,2.218-4.611,3.381-7.623,3.491c-0.566,0.02-1.128,0.039-1.688,0.058      c-12.076,0.871-22.513,5.699-31.309,14.488c-3.843,3.833-6.927,7.983-9.253,12.451c-3.603,6.854-5.407,14.456-5.413,22.807      c0.011,13.649,4.782,25.325,14.316,35.024c0.12,0.101,0.236,0.198,0.35,0.291c9.382,9.387,20.633,14.273,33.753,14.662h2.037      c0.228-0.019,0.46-0.037,0.698-0.058c0.074,0.003,0.151,0.003,0.232,0h0.058c0.17-0.007,0.325-0.007,0.467,0h5.354      l-8.438,46.195h-0.407c-0.167,0.003-0.361,0.003-0.582,0h-0.175c-25.506-0.586-47.347-9.993-65.527-28.218      c-18.788-18.752-28.196-41.384-28.225-67.897c0.023-26.499,9.431-49.111,28.225-67.84c9.828-9.854,20.73-17.126,32.705-21.818      c4.514-19.085,14.214-36.035,29.098-50.851c21.224-21.236,46.848-31.846,76.875-31.825c29.473-0.012,54.71,10.19,75.713,30.604      c3.735-0.575,7.577-0.866,11.523-0.873c19.706-0.032,36.563,6.854,50.57,20.654c0.17,0.11,0.346,0.246,0.522,0.407      c10.308,10.376,16.786,22.342,19.438,35.899c8.623,4.473,16.634,10.407,24.035,17.804c18.772,18.728,28.161,41.341,28.166,67.84      c-0.01,26.515-9.398,49.146-28.166,67.897c-18.19,18.193-40.014,27.603-65.47,28.218h-2.502c-0.06,0-0.116,0-0.176,0h-20.193      l8.495-46.138h11.698c0.06,0,0.116,0,0.176,0c13.773-0.014,25.525-4.902,35.265-14.662c9.766-9.754,14.653-21.525,14.667-35.315      c-0.019-13.771-4.906-25.522-14.667-35.258h-0.057c-7.928-7.981-17.202-12.713-27.818-14.197      c-2.142-0.285-4.042-1.119-5.703-2.502v-0.058c-1.607-1.394-2.715-3.12-3.316-5.179h-0.06c-0.598-2.067-0.577-4.123,0.06-6.167      h-0.06c0.664-2.268,0.993-4.672,0.991-7.215c0.005-7.155-2.519-13.265-7.565-18.327c-5.064-5.067-11.175-7.608-18.331-7.622      c-6.067-0.029-11.383,1.755-15.947,5.354l-0.057,0.059c-1.65,1.349-3.513,2.144-5.588,2.385h-0.059      c-2.164,0.198-4.22-0.21-6.168-1.222c-1.897-1.021-3.371-2.475-4.424-4.363V132.945z" fill="#333333" fill-rule="evenodd"/></g><g><path clip-rule="evenodd" d="M249.25,277.12l-8.497,46.195l-44.867-0.057l8.438-46.139      l42.947,0.058c0.32-0.039,0.65-0.06,0.99-0.058H249.25z" fill="#333333" fill-rule="evenodd"/></g><g><polygon clip-rule="evenodd" fill="#333333" fill-rule="evenodd" points="274.448,277.12 319.375,277.178 310.937,323.315       266.01,323.315     "/></g><g><path clip-rule="evenodd" d="M336.135,323.432l-12.978,70.925l34.104,0.116      c0.768-1.1,1.641-2.146,2.618-3.141c4.59-4.5,10.139-6.75,16.643-6.75c6.495,0,11.984,2.25,16.47,6.75      c1.005,1,1.898,2.05,2.678,3.141c2.823,3.914,4.242,8.414,4.246,13.498c-0.004,4.324-1.031,8.202-3.082,11.636      c-1.014,1.726-2.296,3.335-3.842,4.83c-4.485,4.604-9.975,6.911-16.47,6.923c-6.504-0.012-12.053-2.318-16.643-6.923      c-1.512-1.495-2.773-3.104-3.782-4.83h-62.734l17.574-96.175C319.336,323.432,327.735,323.432,336.135,323.432z" fill="#333333" fill-rule="evenodd"/></g><g><path clip-rule="evenodd" d="M230.336,380.625l10.417-57.31h25.257l-10.475,57.31h-0.06      l-8.961,48.932c0.649,0.522,1.27,1.084,1.862,1.687c4.585,4.589,6.874,10.137,6.867,16.641      c0.007,6.493-2.282,11.979-6.867,16.466c-2.712,2.773-5.797,4.712-9.254,5.818c-2.238,0.732-4.644,1.101-7.216,1.104      c-6.524-0.011-12.092-2.318-16.702-6.923c-0.072-0.055-0.149-0.113-0.232-0.175c-4.334-4.447-6.487-9.88-6.46-16.291      c-0.018-6.504,2.212-12.052,6.692-16.641c2.035-1.981,4.247-3.534,6.635-4.654l8.381-45.964H230.336z" fill="#333333" fill-rule="evenodd"/></g><g><path clip-rule="evenodd" d="M111.968,344.668c6.525,0.003,12.092,2.253,16.702,6.75      c1.254,1.282,2.321,2.641,3.201,4.073h32.88l0.058,0.231v-0.231l5.878-32.176h1.164c0.118,0,0.233,0,0.349,0h0.408      c0.093,0.003,0.189,0.003,0.291,0h0.058c0.504-0.009,1.009-0.029,1.513-0.057c0.117,0.005,0.233,0.005,0.35,0h21.067      l-5.938,32.173v0.06l-4.538,25.134h-53.599c-0.873,1.375-1.921,2.675-3.142,3.897c-4.61,4.604-10.177,6.914-16.702,6.925      c-6.495-0.011-11.984-2.32-16.469-6.925c-1.248-1.223-2.333-2.522-3.26-3.897c-2.427-3.657-3.649-7.848-3.666-12.566      c0.001-4.686,1.185-8.872,3.55-12.567c0.95-1.433,2.076-2.791,3.376-4.073C99.984,346.921,105.473,344.671,111.968,344.668z" fill="#333333" fill-rule="evenodd"/></g><g><path clip-rule="evenodd" d="M192.916,237.324c-4.103,4.105-9.05,6.161-14.839,6.167      c-5.79-0.006-10.737-2.062-14.84-6.167c-4.107-4.104-6.163-9.049-6.169-14.837c0.006-5.788,2.062-10.734,6.169-14.836      c4.103-4.107,9.05-6.163,14.84-6.167c5.789,0.004,10.736,2.06,14.839,6.167c4.108,4.102,6.164,9.048,6.17,14.836      C199.08,228.275,197.024,233.221,192.916,237.324z" fill="#333333" fill-rule="evenodd"/></g><g><path clip-rule="evenodd" d="M255.826,159.593c11.577,0.011,21.471,4.122,29.68,12.335      c8.194,8.204,12.286,18.095,12.277,29.672c0.009,11.558-4.083,21.429-12.277,29.615c-8.209,8.211-18.103,12.324-29.68,12.334      c-11.58-0.01-21.473-4.123-29.68-12.334c-8.215-8.187-12.327-18.058-12.338-29.615c0.011-11.577,4.123-21.468,12.338-29.672      C234.354,163.715,244.246,159.604,255.826,159.593z" fill="#333333" fill-rule="evenodd"/></g><g><path clip-rule="evenodd" d="M333.517,201.484c5.79,0.004,10.736,2.06,14.84,6.167      c4.107,4.102,6.162,9.048,6.167,14.836c-0.005,5.788-2.06,10.733-6.167,14.837c-4.104,4.105-9.05,6.161-14.84,6.167      c-5.79-0.006-10.736-2.062-14.84-6.167c-4.09-4.104-6.126-9.049-6.11-14.837c-0.016-5.788,2.021-10.734,6.11-14.836      C322.78,203.544,327.727,201.488,333.517,201.484z" fill="#333333" fill-rule="evenodd"/></g></g></g></svg>