<?xml version="1.0" encoding="iso-8859-1"?>
<!-- Generator: Adobe Illustrator 19.1.0, SVG Export Plug-In . SVG Version: 6.00 Build 0)  -->
<svg version="1.1" id="Capa_1" xmlns="http://www.w3.org/2000/svg" xmlns:xlink="http://www.w3.org/1999/xlink" x="0px" y="0px"
	 viewBox="0 0 63 63" style="enable-background:new 0 0 63 63;" xml:space="preserve">
<g>
	<g id="group-24svg">
		<path id="path-1_15_" d="M61.501,58.085h-60c-0.532,0-1.024-0.281-1.293-0.739c-0.27-0.457-0.277-1.023-0.019-1.488L27.042,7.453
			c0.02-0.037,0.042-0.072,0.065-0.107c1.02-1.522,2.711-2.43,4.526-2.43c1.744,0,3.297,0.825,4.261,2.265
			c0.024,0.035,0.046,0.072,0.067,0.109l26.852,48.57c0.257,0.464,0.249,1.03-0.02,1.487C62.523,57.805,62.032,58.085,61.501,58.085
			z M4.049,55.085h54.909L33.37,8.805c-0.543-0.772-1.318-0.889-1.737-0.889c-0.794,0-1.539,0.393-2.002,1.054L4.049,55.085z"/>
		<path id="path-2_15_" d="M36.8,30.437l-5.557,1.954l2.979-9.306h-4.674L26.24,39.213l5.567-2.487l-0.889,6.39l-2.178-3.182
			l2.51,11.833l4.548-9.369l-1.962,1.241L36.8,30.437z"/>
	</g>
</g>
<g>
</g>
<g>
</g>
<g>
</g>
<g>
</g>
<g>
</g>
<g>
</g>
<g>
</g>
<g>
</g>
<g>
</g>
<g>
</g>
<g>
</g>
<g>
</g>
<g>
</g>
<g>
</g>
<g>
</g>
</svg>
